<svg xmlns="http://www.w3.org/2000/svg" xmlns:xlink="http://www.w3.org/1999/xlink" width="59" zoomAndPan="magnify" viewBox="0 0 44.25 41.25" height="55" preserveAspectRatio="xMidYMid meet" version="1.0"><path fill="#ffffff" d="M 29.570312 34.109375 L 29.453125 34.074219 L 29.234375 33.988281 L 29.128906 33.941406 L 28.925781 33.828125 L 28.824219 33.765625 L 28.625 33.621094 L 28.320312 33.359375 L 28.273438 33.3125 L 28.1875 33.230469 L 28.148438 33.191406 L 28.078125 33.109375 L 28.007812 33.03125 L 27.898438 32.867188 L 27.871094 32.820312 L 27.820312 32.726562 L 27.792969 32.679688 L 27.746094 32.570312 L 27.722656 32.511719 L 27.671875 32.382812 L 27.589844 32.164062 L 27.445312 31.75 L 27.425781 24.976562 L 27.402344 18.199219 L 27.261719 18.113281 L 27.253906 18.105469 L 27.226562 18.085938 L 27.210938 18.074219 L 27.171875 18.046875 L 27.152344 18.03125 L 27.105469 17.996094 L 27.082031 17.976562 L 26.972656 17.890625 L 26.847656 17.789062 L 26.65625 17.628906 L 26.5625 17.546875 L 26.382812 17.394531 L 26.292969 17.320312 L 26.117188 17.171875 L 25.945312 17.027344 L 25.621094 16.757812 L 25.460938 16.625 L 25.148438 16.367188 L 24.683594 15.996094 L 24.648438 15.964844 L 24.566406 15.898438 L 24.523438 15.863281 L 24.429688 15.792969 L 24.339844 15.714844 L 24.132812 15.546875 L 24.023438 15.457031 L 23.792969 15.269531 L 23.675781 15.171875 L 23.429688 14.96875 L 23.179688 14.761719 L 22.664062 14.335938 L 22.539062 14.226562 L 22.285156 14.015625 L 21.925781 13.714844 L 21.898438 13.691406 L 21.855469 13.65625 L 21.800781 13.628906 L 21.785156 13.625 L 21.753906 13.625 L 21.703125 13.640625 L 21.695312 13.644531 L 21.664062 13.667969 L 21.628906 13.691406 L 21.582031 13.726562 L 21.523438 13.773438 L 21.5 13.792969 L 21.449219 13.835938 L 21.417969 13.859375 L 21.355469 13.910156 L 21.320312 13.9375 L 21.242188 14.003906 L 21.203125 14.039062 L 21.109375 14.113281 L 21.058594 14.15625 L 20.949219 14.246094 L 20.894531 14.292969 L 20.765625 14.402344 L 20.699219 14.457031 L 20.554688 14.578125 L 20.476562 14.640625 L 20.3125 14.78125 L 20.226562 14.855469 L 20.039062 15.011719 L 19.941406 15.09375 L 19.730469 15.273438 L 19.386719 15.5625 L 19.304688 15.628906 L 19.128906 15.777344 L 18.753906 16.089844 L 18.578125 16.234375 L 18.539062 16.265625 L 18.460938 16.332031 L 18.355469 16.414062 L 18.253906 16.496094 L 18.0625 16.65625 L 17.96875 16.734375 L 17.789062 16.882812 L 17.703125 16.957031 L 17.539062 17.097656 L 17.457031 17.164062 L 17.304688 17.296875 L 17.234375 17.363281 L 17.09375 17.484375 L 17.027344 17.546875 L 16.90625 17.660156 L 16.84375 17.714844 L 16.734375 17.820312 L 16.441406 18.113281 L 16.386719 18.171875 L 16.363281 18.199219 L 16.320312 18.246094 L 16.304688 18.269531 L 16.273438 18.308594 L 16.246094 18.347656 L 16.214844 18.417969 L 16.183594 18.535156 L 16.183594 18.542969 L 16.179688 18.566406 L 16.179688 18.582031 L 16.175781 18.621094 L 16.175781 18.640625 L 16.171875 18.691406 L 16.167969 18.71875 L 16.167969 18.785156 L 16.164062 18.816406 L 16.164062 18.894531 L 16.160156 18.933594 L 16.15625 19.019531 L 16.15625 19.109375 L 16.148438 19.316406 L 16.144531 19.421875 L 16.140625 19.660156 L 16.136719 19.785156 L 16.132812 20.050781 L 16.128906 20.183594 L 16.125 20.46875 L 16.117188 20.910156 L 16.089844 23.085938 L 15.949219 23.363281 L 15.910156 23.441406 L 15.824219 23.59375 L 15.78125 23.671875 L 15.640625 23.882812 L 15.539062 24.019531 L 15.488281 24.082031 L 15.382812 24.207031 L 15.328125 24.269531 L 15.214844 24.382812 L 15.15625 24.4375 L 15.035156 24.542969 L 14.972656 24.59375 L 14.84375 24.6875 L 14.644531 24.820312 L 14.570312 24.863281 L 14.417969 24.945312 L 14.34375 24.980469 L 14.191406 25.046875 L 14.117188 25.078125 L 13.957031 25.128906 L 13.878906 25.152344 L 13.714844 25.1875 L 13.628906 25.203125 L 13.457031 25.230469 L 13.367188 25.238281 L 13.179688 25.25 L 13.082031 25.253906 L 12.878906 25.253906 L 12.550781 25.242188 L 12.5 25.238281 L 12.414062 25.234375 L 12.371094 25.230469 L 12.300781 25.222656 L 12.234375 25.214844 L 12.125 25.195312 L 12.074219 25.179688 L 11.96875 25.140625 L 11.9375 25.125 L 11.875 25.097656 L 11.65625 24.988281 L 11.453125 24.878906 L 11.355469 24.820312 L 11.171875 24.703125 L 11.085938 24.644531 L 10.921875 24.519531 L 10.84375 24.457031 L 10.695312 24.324219 L 10.625 24.257812 L 10.4375 24.046875 L 10.324219 23.898438 L 10.269531 23.820312 L 10.175781 23.660156 L 10.046875 23.410156 L 10.019531 23.351562 L 9.980469 23.253906 L 9.960938 23.203125 L 9.929688 23.101562 L 9.914062 23.046875 L 9.890625 22.914062 L 9.886719 22.878906 L 9.875 22.796875 L 9.871094 22.753906 L 9.863281 22.65625 L 9.859375 22.605469 L 9.855469 22.488281 L 9.851562 22.425781 L 9.847656 22.289062 L 9.84375 22.214844 L 9.839844 22.050781 L 9.839844 21.964844 L 9.835938 21.773438 L 9.835938 21.671875 L 9.832031 21.449219 L 9.828125 21.332031 L 9.828125 20.9375 L 9.824219 20.640625 L 9.824219 20.566406 L 9.820312 20.402344 L 9.820312 20.058594 L 9.816406 19.882812 L 9.816406 19.472656 L 9.8125 19.179688 L 9.8125 18.132812 L 9.816406 18.039062 L 9.820312 17.871094 L 9.820312 17.789062 L 9.824219 17.644531 L 9.828125 17.574219 L 9.839844 17.386719 L 9.847656 17.277344 L 9.855469 17.226562 L 9.867188 17.128906 L 9.878906 17.035156 L 9.914062 16.867188 L 9.933594 16.785156 L 9.980469 16.621094 L 10.066406 16.355469 L 10.105469 16.230469 L 10.199219 15.988281 L 10.25 15.867188 L 10.363281 15.632812 L 10.417969 15.515625 L 10.546875 15.28125 L 10.617188 15.167969 L 10.761719 14.9375 L 10.839844 14.824219 L 11.007812 14.597656 L 11.09375 14.484375 L 11.28125 14.257812 L 11.378906 14.144531 L 11.589844 13.914062 L 11.929688 13.570312 L 11.945312 13.554688 L 11.988281 13.515625 L 12.007812 13.496094 L 12.058594 13.449219 L 12.085938 13.425781 L 12.144531 13.371094 L 12.175781 13.34375 L 12.242188 13.28125 L 12.3125 13.21875 L 12.476562 13.078125 L 12.5625 13.003906 L 12.75 12.839844 L 12.847656 12.757812 L 13.054688 12.582031 L 13.160156 12.492188 L 13.378906 12.304688 L 14.0625 11.734375 L 14.289062 11.542969 L 14.738281 11.171875 L 14.84375 11.082031 L 15.054688 10.910156 L 15.15625 10.824219 L 15.4375 10.589844 L 15.605469 10.453125 L 15.683594 10.386719 L 15.820312 10.269531 L 15.855469 10.246094 L 15.914062 10.195312 L 15.941406 10.171875 L 16.011719 10.113281 L 16.050781 10.082031 L 16.097656 10.042969 L 16.234375 9.929688 L 16.480469 9.722656 L 16.601562 9.621094 L 16.839844 9.421875 L 16.957031 9.320312 L 17.195312 9.113281 L 17.257812 9.0625 L 17.386719 8.949219 L 17.585938 8.777344 L 17.621094 8.746094 L 17.699219 8.679688 L 17.738281 8.644531 L 17.824219 8.574219 L 17.910156 8.5 L 18.101562 8.339844 L 18.300781 8.175781 L 18.71875 7.839844 L 18.820312 7.753906 L 19.019531 7.597656 L 19.117188 7.519531 L 19.296875 7.378906 L 19.339844 7.347656 L 19.457031 7.253906 L 19.5625 7.171875 L 19.625 7.128906 L 19.707031 7.070312 L 19.742188 7.042969 L 19.828125 6.988281 L 19.875 6.957031 L 19.96875 6.902344 L 20.066406 6.847656 L 20.277344 6.742188 L 20.382812 6.691406 L 20.589844 6.601562 L 20.640625 6.582031 L 20.734375 6.546875 L 20.871094 6.503906 L 20.933594 6.488281 L 20.960938 6.484375 L 21.019531 6.472656 L 21.082031 6.464844 L 21.230469 6.449219 L 21.308594 6.441406 L 21.484375 6.429688 L 21.570312 6.425781 L 21.753906 6.417969 L 21.847656 6.414062 L 22.269531 6.414062 L 22.347656 6.417969 L 22.472656 6.425781 L 22.503906 6.429688 L 22.550781 6.433594 L 22.613281 6.445312 L 22.6875 6.464844 L 22.847656 6.523438 L 22.890625 6.542969 L 22.980469 6.582031 L 23.121094 6.652344 L 23.171875 6.679688 L 23.273438 6.738281 L 23.324219 6.765625 L 23.4375 6.832031 L 23.492188 6.867188 L 23.796875 7.070312 L 23.859375 7.113281 L 23.992188 7.210938 L 24.0625 7.257812 L 24.203125 7.363281 L 24.277344 7.417969 L 24.429688 7.535156 L 24.503906 7.59375 L 24.667969 7.71875 L 24.75 7.785156 L 24.921875 7.921875 L 25.007812 7.992188 L 25.1875 8.140625 L 25.28125 8.214844 L 25.472656 8.375 L 25.773438 8.625 L 25.816406 8.664062 L 25.96875 8.792969 L 26.085938 8.890625 L 26.144531 8.941406 L 26.269531 9.046875 L 26.335938 9.097656 L 26.46875 9.210938 L 26.605469 9.320312 L 26.875 9.546875 L 26.941406 9.601562 L 27.070312 9.707031 L 27.257812 9.859375 L 27.316406 9.90625 L 27.445312 10.011719 L 27.511719 10.066406 L 27.65625 10.183594 L 27.800781 10.304688 L 28.113281 10.558594 L 28.269531 10.6875 L 28.570312 10.9375 L 28.644531 10.996094 L 28.785156 11.113281 L 28.976562 11.269531 L 29.097656 11.371094 L 29.355469 11.582031 L 29.484375 11.691406 L 29.742188 11.902344 L 29.804688 11.953125 L 29.925781 12.054688 L 29.984375 12.101562 L 30.09375 12.191406 L 30.144531 12.234375 L 30.242188 12.3125 L 30.363281 12.410156 L 30.402344 12.441406 L 30.488281 12.515625 L 30.53125 12.554688 L 30.625 12.636719 L 30.722656 12.722656 L 30.933594 12.917969 L 31.042969 13.019531 L 31.265625 13.234375 L 31.378906 13.34375 L 31.605469 13.566406 L 31.714844 13.675781 L 31.925781 13.890625 L 32.03125 13.996094 L 32.214844 14.191406 L 32.257812 14.238281 L 32.339844 14.324219 L 32.378906 14.367188 L 32.449219 14.445312 L 32.480469 14.484375 L 32.539062 14.550781 L 32.605469 14.636719 L 32.71875 14.789062 L 32.914062 15.097656 L 33.007812 15.25 L 33.175781 15.578125 L 33.214844 15.664062 L 33.289062 15.835938 L 33.328125 15.925781 L 33.394531 16.105469 L 33.429688 16.199219 L 33.496094 16.394531 L 33.585938 16.695312 L 33.671875 16.992188 L 33.695312 24.453125 L 33.714844 31.914062 L 33.625 32.1875 L 33.609375 32.242188 L 33.574219 32.339844 L 33.554688 32.386719 L 33.523438 32.472656 L 33.488281 32.554688 L 33.410156 32.699219 L 33.367188 32.769531 L 33.269531 32.90625 L 33.085938 33.117188 L 33.027344 33.179688 L 32.90625 33.292969 L 32.847656 33.351562 L 32.730469 33.457031 L 32.609375 33.558594 L 32.359375 33.734375 L 32.230469 33.816406 L 31.96875 33.953125 L 31.554688 34.121094 L 31.480469 34.144531 L 31.367188 34.175781 L 31.308594 34.191406 L 31.1875 34.207031 L 31.15625 34.210938 L 31.082031 34.214844 L 31.042969 34.214844 L 30.949219 34.21875 L 30.902344 34.21875 L 30.789062 34.222656 L 30.585938 34.21875 L 30.320312 34.21875 L 30.21875 34.214844 L 30.167969 34.214844 L 30.085938 34.210938 L 30.046875 34.207031 L 29.972656 34.203125 L 29.90625 34.195312 L 29.78125 34.167969 L 29.75 34.160156 L 29.683594 34.144531 L 29.648438 34.132812 Z M 29.570312 34.109375 " fill-opacity="1" fill-rule="nonzero"/></svg>